<svg
      xmlns="http://www.w3.org/2000/svg"
      width="157"
      height="69"
      viewBox="0 0 157 69"
      fill="none"
    >
      <g clip-path="url(#clip0_79_26)">
        <path
          d="M2.0336 67L0 66.997C0.0264409 48.7848 12.3297 30.8848 29.2542 24.4341C31.1556 23.7092 33.4183 22.9843 35.8186 23.1185C37.3756 23.2037 38.9098 23.6607 40.3646 24.4436C42.7696 18.4517 45.812 12.7341 49.4656 7.34884C50.6677 5.578 52.1355 3.61677 54.353 2.76298C57.6663 1.48643 61.5291 2.7074 63.5368 5.66728C65.0727 7.93006 65.8095 11.2814 65.7261 15.6289C65.705 16.7284 65.6331 17.834 65.5633 18.9053L65.5569 19.0045L65.5567 19.0076C65.4263 20.9883 65.3031 22.8599 65.4547 24.7439C65.5974 26.5201 66.195 28.0308 67.0135 28.6871C67.4313 29.0217 67.9142 29.1435 68.4859 29.0596C69.496 28.9106 70.9167 27.5353 71.6536 26.3468C73.8564 22.7927 74.9369 19.1103 76.0804 15.2121L76.0836 15.2011C76.6449 13.2876 77.2252 11.3094 77.9571 9.29707C80.0341 3.58366 82.5631 0.486599 85.471 0.0910412C88.3248 -0.299195 91.932 0.530353 93.5589 3.25432C94.8115 5.35071 95.0484 8.55192 95.2387 11.1244L95.2388 11.1253L95.2493 11.2645C95.2801 11.6752 95.3095 12.0683 95.3428 12.4355C95.6028 15.3172 95.3926 18.904 95.2071 22.0696L95.2065 22.0797C95.1472 23.0961 95.0902 24.0746 95.0508 24.9798L95.0085 25.8933C94.9209 27.7535 94.8305 29.6769 95.0197 31.4725C95.1154 32.3801 95.6783 33.1269 96.5244 33.4698C97.3494 33.8045 98.2454 33.6638 98.9206 33.0944C101.659 30.7802 109.872 14.6664 109.972 12.8139C109.963 12.9677 110.085 13.3662 110.499 13.5518L111.326 11.6828C111.69 11.8454 111.932 12.1813 111.991 12.6034C112.316 14.933 103.082 32.2495 100.229 34.6612C98.9676 35.7273 97.2977 35.991 95.7641 35.3678C94.2317 34.7464 93.1717 33.3362 92.9978 31.6883C92.7922 29.736 92.8862 27.7334 92.9772 25.7958L93.0184 24.8906C93.0571 24.0036 93.1129 23.0478 93.1708 22.0555L93.1764 21.9585C93.358 18.862 93.5636 15.3522 93.3169 12.62C93.2793 12.2008 93.2458 11.7496 93.2111 11.2772C93.0366 8.92043 92.8186 5.98715 91.8156 4.30796C90.7215 2.47621 87.9288 1.81991 85.743 2.1179C83.7 2.3958 81.613 5.19486 79.8655 9.99949C79.1579 11.9467 78.5878 13.8893 78.0363 15.7687L78.0299 15.7904C76.8465 19.8263 75.7284 23.6382 73.3781 27.4295C72.6765 28.5623 70.8116 30.7843 68.7803 31.0841C67.6516 31.2502 66.6045 30.9753 65.7473 30.2882C63.9264 28.8302 63.5186 26.0406 63.4269 24.9089C63.2636 22.8737 63.397 20.838 63.5268 18.8691C63.5979 17.79 63.6714 16.6749 63.6919 15.5893C63.766 11.7313 63.132 8.6993 61.8575 6.82143C60.398 4.671 57.4842 3.74744 55.0793 4.67454C53.41 5.31784 52.2201 6.91899 51.1443 8.503C47.5013 13.8735 44.48 19.5816 42.1074 25.5676C44.205 27.1533 46.0664 29.4516 47.4931 32.3068C50.2024 37.7275 51.1648 44.0121 50.203 50.0022C49.8728 52.0622 48.6612 56.9591 44.5664 57.9335C40.7078 58.8529 37.1529 55.3792 35.932 51.4958C34.4072 46.6492 35.2727 41.5229 36.3203 37.1481C37.2005 33.4704 38.3022 29.872 39.6184 26.3628C38.3604 25.6497 37.0395 25.2358 35.7063 25.1625C33.6904 25.0537 31.6762 25.7 29.9734 26.3492C13.8098 32.5096 2.05886 49.6061 2.0336 67ZM41.3456 27.5621C40.1371 30.841 39.1201 34.1992 38.2987 37.6276C37.3169 41.7286 36.4984 46.5102 37.8715 50.8785C38.7929 53.8076 41.4369 56.5789 44.0987 55.9427C47.0824 55.2326 47.9896 50.9672 48.197 49.6765C49.0907 44.1079 48.1958 38.2656 45.6775 33.2268C44.4977 30.8666 43.0071 28.9404 41.3456 27.5621Z"
          fill="#C05C28"
        />
        <path
          d="M2.0336 67L0 66.997C0.0264409 48.7848 12.3297 30.8848 29.2542 24.4341C31.1556 23.7092 33.4183 22.9843 35.8186 23.1185C37.3756 23.2037 38.9098 23.6607 40.3646 24.4436C42.7696 18.4517 45.812 12.7341 49.4656 7.34884C50.6677 5.578 52.1355 3.61677 54.353 2.76298C57.6663 1.48643 61.5291 2.7074 63.5368 5.66728C65.0727 7.93006 65.8095 11.2814 65.7261 15.6289C65.705 16.7284 65.6331 17.834 65.5633 18.9053L65.5569 19.0045L65.5567 19.0076C65.4263 20.9883 65.3031 22.8599 65.4547 24.7439C65.5974 26.5201 66.195 28.0308 67.0135 28.6871C67.4313 29.0217 67.9142 29.1435 68.4859 29.0596C69.496 28.9106 70.9167 27.5353 71.6536 26.3468C73.8564 22.7927 74.9369 19.1103 76.0804 15.2121L76.0836 15.2011C76.6449 13.2876 77.2252 11.3094 77.9571 9.29707C80.0341 3.58366 82.5631 0.486599 85.471 0.0910412C88.3248 -0.299195 91.932 0.530353 93.5589 3.25432C94.8115 5.35071 95.0484 8.55192 95.2387 11.1244L95.2388 11.1253L95.2493 11.2645C95.2801 11.6752 95.3095 12.0683 95.3428 12.4355C95.6028 15.3172 95.3926 18.904 95.2071 22.0696L95.2065 22.0797C95.1472 23.0961 95.0902 24.0746 95.0508 24.9798L95.0085 25.8933C94.9209 27.7535 94.8305 29.6769 95.0197 31.4725C95.1154 32.3801 95.6783 33.1269 96.5244 33.4698C97.3494 33.8045 98.2454 33.6638 98.9206 33.0944C101.659 30.7802 109.872 14.6664 109.972 12.8139C109.963 12.9677 110.085 13.3662 110.499 13.5518L111.326 11.6828C111.69 11.8454 111.932 12.1813 111.991 12.6034C112.316 14.933 103.082 32.2495 100.229 34.6612C98.9676 35.7273 97.2977 35.991 95.7641 35.3678C94.2317 34.7464 93.1717 33.3362 92.9978 31.6883C92.7922 29.736 92.8862 27.7334 92.9772 25.7958L93.0184 24.8906C93.0571 24.0036 93.1129 23.0478 93.1708 22.0555L93.1764 21.9585C93.358 18.862 93.5636 15.3522 93.3169 12.62C93.2793 12.2008 93.2458 11.7496 93.2111 11.2772C93.0366 8.92043 92.8186 5.98715 91.8156 4.30796C90.7215 2.47621 87.9288 1.81991 85.743 2.1179C83.7 2.3958 81.613 5.19486 79.8655 9.99949C79.1579 11.9467 78.5878 13.8893 78.0363 15.7687L78.0299 15.7904C76.8465 19.8263 75.7284 23.6382 73.3781 27.4295C72.6765 28.5623 70.8116 30.7843 68.7803 31.0841C67.6516 31.2502 66.6045 30.9753 65.7473 30.2882C63.9264 28.8302 63.5186 26.0406 63.4269 24.9089C63.2636 22.8737 63.397 20.838 63.5268 18.8691C63.5979 17.79 63.6714 16.6749 63.6919 15.5893C63.766 11.7313 63.132 8.6993 61.8575 6.82143C60.398 4.671 57.4842 3.74744 55.0793 4.67454C53.41 5.31784 52.2201 6.91899 51.1443 8.503C47.5013 13.8735 44.48 19.5816 42.1074 25.5676C44.205 27.1533 46.0664 29.4516 47.4931 32.3068C50.2024 37.7275 51.1648 44.0121 50.203 50.0022C49.8728 52.0622 48.6612 56.9591 44.5664 57.9335C40.7078 58.8529 37.1529 55.3792 35.932 51.4958C34.4072 46.6492 35.2727 41.5229 36.3203 37.1481C37.2005 33.4704 38.3022 29.872 39.6184 26.3628C38.3604 25.6497 37.0395 25.2358 35.7063 25.1625C33.6904 25.0537 31.6762 25.7 29.9734 26.3492C13.8098 32.5096 2.05886 49.6061 2.0336 67ZM41.3456 27.5621C40.1371 30.841 39.1201 34.1992 38.2987 37.6276C37.3169 41.7286 36.4984 46.5102 37.8715 50.8785C38.7929 53.8076 41.4369 56.5789 44.0987 55.9427C47.0824 55.2326 47.9896 50.9672 48.197 49.6765C49.0907 44.1079 48.1958 38.2656 45.6775 33.2268C44.4977 30.8666 43.0071 28.9404 41.3456 27.5621Z"
          stroke="#1E1E1E"
        />
      </g>
      <g clip-path="url(#clip1_79_26)">
        <path
          d="M57 69V45.7679H61.0013L61.0338 47.6904C62.0251 46.0881 63.496 45.3512 65.4162 45.3512C69.385 45.3512 72.2341 48.4918 72.2341 53.8109C72.2341 58.5853 69.8342 61.95 65.77 61.95C63.8168 61.95 62.2804 61.1491 61.0957 59.4828V69H57ZM68.01 53.5228C68.01 50.7029 66.5391 48.7484 64.4579 48.7484C62.3768 48.7484 60.9358 50.6068 60.9358 53.2667C60.9358 56.6954 62.121 58.3937 64.4254 58.3937C66.8578 58.3937 68.01 56.7594 68.01 53.5228Z"
          fill="#F3F4EF"
        />
        <path
          d="M73.8371 43.8774V40H77.9993V43.8774H73.8371ZM73.8371 61.5338V45.7679H77.9993V61.5338H73.8371Z"
          fill="#F3F4EF"
        />
        <path
          d="M94.0648 55.8299C93.6182 59.4827 90.6407 61.9505 86.8328 61.9505C82.5427 61.9505 79.5977 59.0986 79.5977 53.4587C79.5977 47.8189 82.5421 45.3517 86.9607 45.3517C91.0574 45.3517 93.8415 47.6909 94.0973 51.4082H89.9052C89.6819 49.7739 88.4972 48.8124 86.9277 48.8124C85.1679 48.8124 83.7269 49.934 83.7269 53.3627C83.7269 56.7914 85.1679 58.4577 86.7993 58.4577C88.4306 58.4577 89.7113 57.5283 89.8717 55.8299H94.0638H94.0648Z"
          fill="#F3F4EF"
        />
        <path
          d="M104.95 61.5338L101.493 54.4522L99.4778 56.5353V61.5343H95.2857V40H99.4778V51.7604L104.661 45.7679H109.752L104.47 51.5678L109.624 61.5338H104.95Z"
          fill="#F3F4EF"
        />
        <path
          d="M119.325 61.5338C119.197 61.1491 119.099 60.6043 119.069 60.1241C118.075 61.2137 116.41 61.9505 114.299 61.9505C110.715 61.9505 109.05 60.1881 109.05 57.6243C109.05 53.0741 112.09 52.5613 116.282 51.9845C118.364 51.6959 118.941 51.2797 118.941 50.1901C118.941 49.1646 117.917 48.5558 116.282 48.5558C114.395 48.5558 113.627 49.4853 113.436 50.895H109.563C109.625 47.6263 111.417 45.3512 116.476 45.3512C121.535 45.3512 123.196 47.5943 123.196 51.5678V61.5338H119.325ZM119.036 53.8109C118.619 54.2276 117.884 54.4517 116.347 54.7404C113.978 55.1891 113.21 55.862 113.21 57.2076C113.21 58.3932 113.915 58.97 115.228 58.97C117.372 58.97 118.971 57.3997 119.004 55.5413L119.036 53.8109Z"
          fill="#F3F4EF"
        />
        <path
          d="M125.023 69V45.7679H129.024L129.057 47.6904C130.048 46.0881 131.519 45.3512 133.439 45.3512C137.408 45.3512 140.257 48.4918 140.257 53.8109C140.257 58.5853 137.857 61.95 133.793 61.95C131.84 61.95 130.304 61.1491 129.119 59.4828V69H125.022H125.023ZM136.033 53.5228C136.033 50.7029 134.562 48.7484 132.481 48.7484C130.4 48.7484 128.959 50.6068 128.959 53.2667C128.959 56.6954 130.144 58.3937 132.449 58.3937C134.881 58.3937 136.033 56.7594 136.033 53.5228Z"
          fill="#F3F4EF"
        />
        <path
          d="M141.765 69V45.7679H145.766L145.799 47.6904C146.79 46.0881 148.261 45.3512 150.181 45.3512C154.15 45.3512 156.999 48.4918 156.999 53.8109C156.999 58.5853 154.599 61.95 150.535 61.95C148.582 61.95 147.045 61.1491 145.861 59.4828V69H141.764H141.765ZM152.775 53.5228C152.775 50.7029 151.304 48.7484 149.223 48.7484C147.142 48.7484 145.701 50.6068 145.701 53.2667C145.701 56.6954 146.886 58.3937 149.19 58.3937C151.623 58.3937 152.775 56.7594 152.775 53.5228Z"
          fill="#F3F4EF"
        />
      </g>
      <defs>
        <clipPath id="clip0_79_26">
          <rect width="112" height="67" fill="white" />
        </clipPath>
        <clipPath id="clip1_79_26">
          <rect
            width="100"
            height="29"
            fill="white"
            transform="translate(57 40)"
          />
        </clipPath>
      </defs>
    </svg>