<?xml version="1.0" standalone="no"?>
<!DOCTYPE svg PUBLIC "-//W3C//DTD SVG 20010904//EN"
 "http://www.w3.org/TR/2001/REC-SVG-20010904/DTD/svg10.dtd">
<svg version="1.0" xmlns="http://www.w3.org/2000/svg"
 width="431.000000pt" height="185.000000pt" viewBox="0 0 431.000000 185.000000"
 preserveAspectRatio="xMidYMid meet">

<g transform="translate(0.000000,185.000000) scale(0.100000,-0.100000)"
fill="#14301c" stroke="none">
<path d="M990 1415 l-65 -33 -50 25 -51 25 -192 -96 -192 -96 2 -243 3 -242
92 -48 93 -48 0 -44 0 -45 90 0 90 0 123 -61 122 -61 193 96 c105 53 192 100
192 104 0 4 -48 31 -107 61 l-106 53 69 37 69 37 3 247 c1 166 -1 247 -8 247
-6 0 -42 -16 -80 -35 -38 -19 -74 -35 -79 -35 -6 0 -37 40 -71 89 -33 49 -63
92 -67 94 -5 3 -37 -10 -73 -28z m118 -85 c28 -44 52 -83 52 -88 0 -7 -330
-176 -335 -170 -21 27 -105 159 -105 165 0 9 308 172 325 172 6 0 34 -35 63
-79z m-258 55 c17 -9 30 -18 30 -20 0 -3 -45 -27 -100 -55 -55 -28 -100 -56
-100 -63 0 -7 20 -42 45 -79 25 -37 45 -70 45 -73 0 -3 -61 25 -135 62 -74 37
-135 70 -135 73 0 4 305 166 318 169 2 1 16 -6 32 -14z m490 -313 l0 -218 -64
-31 c-35 -18 -67 -29 -70 -26 -3 4 -6 100 -6 215 l0 208 68 34 c37 19 68 35
70 36 1 0 2 -98 2 -218z m-717 61 l132 -68 -62 -3 -63 -3 0 -179 c0 -99 -2
-180 -5 -180 -2 0 -38 17 -80 37 l-75 37 0 213 c0 137 4 213 10 213 6 0 70
-30 143 -67z m557 -131 c0 -109 -3 -201 -6 -205 -3 -3 -80 31 -170 76 l-164
82 0 42 0 43 158 79 c86 44 163 80 170 80 9 1 12 -45 12 -197z m-370 -187 l0
-215 -80 0 -80 0 0 215 0 215 80 0 80 0 0 -215z m190 30 c83 -41 150 -77 150
-80 0 -5 -295 -155 -305 -155 -3 0 -5 70 -5 155 0 85 2 155 5 155 3 0 73 -34
155 -75z m380 -197 c0 -4 -72 -44 -160 -88 l-160 -80 -95 47 c-52 26 -95 50
-95 53 0 3 73 42 162 86 l163 81 92 -46 c51 -25 93 -49 93 -53z"/>
<path d="M1640 950 c0 -296 2 -340 15 -340 13 0 15 44 15 340 0 296 -2 340
-15 340 -13 0 -15 -44 -15 -340z"/>
<path d="M2313 1106 c-61 -27 -91 -113 -73 -208 12 -62 49 -105 98 -114 39 -8
100 8 131 34 19 15 20 19 8 36 -12 17 -16 17 -57 3 -76 -25 -110 5 -110 99 0
85 57 135 94 82 9 -12 16 -31 16 -41 0 -14 6 -18 26 -15 34 4 49 27 40 61 -13
55 -111 90 -173 63z"/>
<path d="M1820 950 l0 -160 34 0 c34 0 35 1 38 48 3 47 3 47 43 53 57 7 85 25
101 64 18 44 18 59 -1 100 -21 43 -51 55 -140 55 l-75 0 0 -160z m131 100 c13
-7 19 -21 19 -43 0 -43 -11 -57 -46 -60 -28 -2 -29 0 -32 42 -5 70 11 86 59
61z"/>
<path d="M2100 950 l0 -160 40 0 40 0 0 160 0 160 -40 0 -40 0 0 -160z"/>
<path d="M2540 950 l0 -160 35 0 35 0 0 65 c0 62 1 65 24 65 30 0 39 -12 60
-76 18 -54 35 -67 73 -53 l21 8 -23 62 c-12 35 -31 72 -42 82 -19 19 -19 21
20 94 l39 74 -39 -3 c-34 -3 -41 -8 -63 -49 -52 -96 -70 -98 -70 -8 l0 59 -35
0 -35 0 0 -160z"/>
<path d="M3030 953 c-27 -86 -49 -157 -47 -159 3 -3 30 -6 48 -5 9 0 20 15 25
34 9 30 12 32 62 35 51 3 53 2 63 -28 13 -35 41 -54 69 -45 21 7 24 -7 -45
208 l-38 117 -43 0 -43 0 -51 -157z m108 31 c19 -64 16 -74 -18 -74 -34 0 -35
5 -18 79 13 57 19 56 36 -5z"/>
<path d="M3310 950 l0 -160 34 0 c34 0 35 1 38 47 l3 48 49 7 c59 8 92 37 101
88 8 48 -15 102 -51 119 -14 6 -58 11 -99 11 l-75 0 0 -160z m131 100 c14 -8
19 -21 19 -51 0 -34 -4 -41 -27 -50 -42 -16 -53 -5 -53 49 0 64 15 76 61 52z"/>
<path d="M3590 950 l0 -160 34 0 c34 0 35 1 38 48 3 47 3 47 43 53 57 7 85 25
101 64 18 44 18 59 -1 100 -21 43 -51 55 -140 55 l-75 0 0 -160z m131 100 c13
-7 19 -21 19 -43 0 -43 -11 -57 -46 -60 -28 -2 -29 0 -32 42 -5 70 11 86 59
61z"/>
<path d="M2818 928 c-11 -30 4 -38 68 -38 62 0 64 1 64 25 0 24 -2 25 -64 25
-42 0 -65 -4 -68 -12z"/>
</g>
</svg>
